<?xml version="1.0" standalone="no"?>
<!DOCTYPE svg PUBLIC "-//W3C//DTD SVG 20010904//EN"
 "http://www.w3.org/TR/2001/REC-SVG-20010904/DTD/svg10.dtd">
<svg version="1.0" xmlns="http://www.w3.org/2000/svg"
 width="691.000000pt" height="691.000000pt" viewBox="0 0 691.000000 691.000000"
 preserveAspectRatio="xMidYMid meet">
<metadata>
Created by potrace 1.14, written by Peter Selinger 2001-2017
</metadata>
<g transform="translate(0.000000,691.000000) scale(0.100000,-0.100000)"
fill="#000000" stroke="none">
<path d="M6038 6854 c-2 -1 -19 -5 -38 -8 -49 -8 -68 -12 -120 -26 -76 -20
-314 -102 -327 -112 -7 -6 -13 -7 -13 -4 0 4 -10 1 -22 -6 -13 -7 -26 -12 -30
-13 -3 0 -10 -3 -14 -7 -4 -5 -16 -8 -26 -8 -10 0 -18 -5 -18 -12 0 -6 -3 -8
-7 -5 -3 4 -20 -2 -38 -13 -18 -11 -35 -17 -38 -13 -4 3 -7 0 -7 -7 0 -7 -3
-11 -6 -7 -4 3 -19 0 -35 -9 -16 -8 -30 -13 -31 -12 -2 2 -20 -8 -40 -20 -21
-13 -38 -21 -38 -18 0 4 -15 -1 -32 -11 -18 -9 -35 -18 -38 -18 -3 -1 -18 -7
-33 -13 -16 -7 -30 -12 -32 -12 -2 0 -16 -5 -32 -12 -15 -6 -32 -12 -38 -14
-10 -3 -267 -100 -295 -111 -8 -3 -20 -7 -25 -8 -6 -2 -33 -13 -60 -26 -28
-13 -52 -24 -55 -24 -12 -4 -49 -19 -90 -39 -25 -11 -47 -21 -50 -21 -3 -1
-23 -10 -45 -20 -22 -10 -42 -19 -45 -20 -3 -1 -23 -10 -45 -20 -22 -9 -40
-16 -40 -14 -1 2 -13 -4 -28 -14 -15 -9 -27 -15 -27 -12 0 3 -13 -1 -30 -10
-16 -8 -31 -14 -33 -13 -2 2 -15 -5 -30 -15 -15 -9 -27 -15 -27 -12 0 3 -10 0
-22 -7 -13 -7 -25 -13 -28 -14 -6 -1 -35 -12 -65 -23 -11 -5 -22 -8 -25 -7 -3
0 -18 -7 -33 -17 -15 -9 -27 -15 -27 -12 0 3 -10 0 -22 -7 -13 -6 -27 -13 -33
-14 -5 -1 -23 -8 -40 -15 -16 -7 -32 -13 -35 -14 -15 -5 -49 -19 -77 -31 -17
-8 -33 -14 -36 -14 -2 0 -22 -8 -43 -17 -22 -9 -43 -18 -49 -19 -12 -3 -125
-49 -180 -74 -43 -19 -228 -85 -285 -102 -19 -6 -41 -15 -47 -20 -7 -6 -13 -7
-13 -3 0 4 -7 2 -15 -5 -8 -7 -15 -10 -15 -6 0 4 -13 0 -30 -9 -16 -9 -30 -13
-30 -11 0 3 -26 -6 -57 -18 -72 -29 -92 -36 -99 -35 -3 0 -16 -7 -30 -15 -13
-9 -24 -14 -24 -11 0 4 -12 -1 -27 -9 -23 -13 -66 -32 -93 -41 -15 -5 -69 -28
-100 -43 -19 -9 -37 -17 -40 -18 -5 -1 -50 -18 -80 -31 -8 -3 -17 -7 -20 -7
-5 -1 -63 -23 -95 -36 -44 -18 -241 -91 -255 -95 -8 -2 -33 -11 -55 -21 -22
-10 -42 -18 -45 -19 -12 -4 -47 -17 -70 -28 -14 -6 -27 -11 -30 -12 -3 0 -58
-26 -124 -58 -65 -31 -122 -57 -126 -57 -5 0 -10 -4 -12 -8 -1 -5 -37 -25 -78
-46 -74 -36 -93 -46 -180 -97 -69 -41 -136 -108 -166 -169 -24 -47 -28 -67
-28 -140 0 -47 3 -103 7 -125 4 -22 10 -53 13 -70 3 -16 10 -50 15 -75 14 -60
18 -79 25 -114 2 -16 7 -33 9 -37 3 -4 7 -24 10 -45 3 -22 8 -52 11 -69 3 -16
7 -39 8 -50 16 -91 19 -134 19 -225 -1 -123 -21 -216 -67 -310 -27 -55 -94
-156 -131 -196 -5 -6 -26 -30 -45 -54 -19 -24 -39 -48 -45 -54 -116 -129 -187
-258 -179 -326 7 -66 25 -85 114 -117 57 -22 105 -29 230 -38 141 -10 195 -16
237 -25 152 -34 270 -114 356 -240 17 -25 33 -47 36 -50 8 -7 29 -41 38 -60 4
-8 9 -17 12 -20 14 -12 162 -300 155 -300 -2 0 6 -21 19 -47 14 -27 30 -66 37
-88 7 -22 15 -44 19 -50 3 -5 6 -14 7 -20 1 -5 16 -48 34 -95 17 -47 33 -92
35 -100 2 -8 4 -16 5 -17 2 -2 3 -6 4 -10 1 -5 5 -14 9 -20 5 -7 6 -13 2 -13
-3 0 1 -13 10 -30 8 -16 15 -32 15 -35 0 -3 0 -6 1 -7 0 -2 2 -10 4 -18 4 -20
59 -165 81 -215 10 -22 18 -42 19 -45 1 -3 6 -16 12 -30 6 -14 11 -28 11 -33
1 -4 8 -20 16 -35 16 -31 66 -154 66 -163 0 -4 8 -24 17 -45 9 -22 18 -44 19
-51 1 -7 10 -27 19 -45 9 -18 18 -40 20 -49 7 -34 121 -274 149 -313 88 -124
136 -155 248 -160 46 -2 118 18 130 37 4 7 8 8 8 4 0 -5 13 1 29 12 16 12 32
21 35 21 3 0 39 24 80 54 l73 55 -8 -42 c-23 -128 -12 -237 31 -297 34 -48 90
-55 157 -20 50 26 77 56 155 175 100 153 240 418 629 1195 76 151 158 311 182
355 43 81 55 102 165 297 33 59 74 131 90 160 16 29 71 127 122 218 446 793
532 977 525 1116 -4 84 -52 200 -112 271 -10 12 -29 36 -43 54 -73 95 -180
163 -310 195 -86 21 -91 27 -85 83 3 25 7 71 10 101 3 30 14 135 25 232 26
232 32 309 32 448 1 194 -16 250 -86 284 -45 22 -66 15 -127 -41 -96 -89 -196
-293 -344 -703 -82 -228 -152 -388 -206 -467 -41 -62 -150 -170 -214 -214 -27
-19 -51 -37 -53 -41 -2 -5 -10 -8 -18 -8 -8 0 -14 -4 -14 -10 0 -5 -6 -10 -14
-10 -8 0 -16 -3 -18 -7 -1 -5 -18 -16 -37 -26 -18 -9 -65 -34 -105 -55 -39
-20 -73 -40 -74 -45 -2 -4 -8 -5 -13 -1 -5 3 -9 0 -9 -5 0 -6 -3 -10 -7 -9 -5
1 -29 -8 -56 -20 -26 -12 -48 -21 -50 -20 -1 1 -15 -5 -32 -14 -16 -9 -52 -25
-80 -34 -27 -10 -56 -22 -62 -27 -7 -5 -13 -7 -13 -3 0 3 -12 0 -27 -6 -16 -6
-73 -12 -128 -13 -91 -2 -158 -8 -225 -20 -14 -2 -41 -7 -60 -9 -36 -6 -46 -8
-135 -26 -27 -6 -59 -12 -70 -14 -51 -10 -188 -39 -267 -57 -48 -10 -90 -19
-92 -19 -2 0 0 19 6 42 20 92 81 200 163 287 71 76 86 91 139 136 26 22 55 47
65 55 9 9 35 29 56 45 22 17 42 32 45 35 3 3 23 18 45 35 22 16 42 32 45 35 3
3 21 17 40 30 19 13 41 30 48 37 7 7 16 13 20 13 4 0 23 14 42 30 19 16 38 30
41 30 3 0 15 8 27 18 11 9 30 24 42 32 12 8 28 20 34 25 7 6 19 15 28 20 25
16 162 114 181 130 9 8 21 15 26 15 4 0 16 9 26 20 10 11 23 20 29 20 6 0 27
14 46 30 58 49 59 50 65 50 3 0 11 5 18 10 7 6 30 24 52 40 22 16 45 33 50 38
6 4 35 25 65 46 105 75 205 151 208 159 2 4 8 7 14 7 11 0 81 51 86 63 2 4 10
7 17 7 7 0 15 4 17 8 2 4 21 19 43 32 22 13 45 28 50 32 6 5 37 26 70 48 82
54 96 63 109 75 7 6 19 15 28 20 17 10 107 73 158 110 15 11 54 38 86 60 33
22 64 44 71 50 7 5 19 16 27 23 8 6 19 12 23 12 5 0 20 11 35 25 15 14 31 25
37 25 5 0 11 4 13 8 2 4 36 30 76 57 109 73 117 79 120 88 2 4 10 7 18 7 8 0
14 4 14 8 0 5 18 18 40 31 22 12 46 27 53 34 7 7 20 17 29 22 21 13 130 87
143 97 52 41 74 57 100 73 16 10 34 22 40 27 5 4 24 19 41 33 18 14 36 25 41
25 4 0 20 11 35 25 15 14 32 25 38 25 5 0 10 3 10 8 0 4 20 18 45 32 25 14 45
28 45 32 0 5 5 8 11 8 8 0 63 37 114 78 6 4 32 23 60 42 56 40 62 44 92 68 11
9 31 24 44 32 12 8 29 23 38 33 8 9 19 17 24 17 5 0 14 6 21 13 7 6 25 21 40
32 101 72 246 218 270 269 36 76 22 143 -33 166 -25 10 -126 21 -133 14z
m-2498 -1414 c83 -42 118 -103 105 -182 -16 -90 -101 -184 -333 -363 -7 -5
-19 -16 -27 -22 -7 -7 -18 -13 -24 -13 -6 0 -11 -4 -11 -8 0 -4 -15 -16 -32
-27 -18 -10 -38 -24 -44 -29 -6 -6 -22 -18 -34 -26 -12 -8 -31 -23 -42 -32
-12 -10 -24 -18 -27 -18 -5 0 -28 -17 -78 -60 -7 -5 -16 -10 -21 -10 -5 0 -15
-7 -22 -15 -7 -9 -31 -28 -54 -43 -98 -67 -151 -106 -154 -114 -2 -4 -8 -8
-13 -8 -9 0 -21 -8 -54 -37 -7 -7 -18 -13 -24 -13 -6 0 -11 -4 -11 -9 0 -5 -8
-12 -18 -15 -10 -4 -27 -14 -38 -24 -10 -10 -48 -38 -84 -62 -36 -25 -67 -47
-70 -50 -3 -3 -17 -11 -32 -19 -16 -8 -28 -18 -28 -23 0 -4 -6 -8 -14 -8 -8 0
-16 -4 -18 -8 -7 -16 -188 -116 -208 -114 -3 0 -13 -4 -23 -10 -19 -10 -25
-11 -112 -29 -176 -35 -303 44 -372 231 -24 65 -27 85 -27 190 0 147 30 231
111 315 36 38 166 126 221 150 23 10 42 23 42 28 0 4 5 5 10 2 6 -3 10 -1 10
5 0 6 5 8 10 5 6 -3 10 -1 10 6 0 7 3 10 6 6 4 -3 25 4 48 17 22 12 43 23 46
24 7 1 30 10 65 23 17 7 32 13 35 13 3 1 30 11 60 23 60 24 101 40 112 42 4 1
25 9 45 18 76 31 88 36 98 39 9 2 86 34 130 54 24 11 78 31 85 32 3 0 14 5 25
11 11 6 22 12 25 13 3 0 13 4 23 7 9 4 25 10 35 14 9 3 20 7 25 8 4 2 9 4 12
5 5 3 6 3 50 15 17 4 35 10 40 14 6 3 13 6 18 7 4 1 9 3 12 4 3 1 8 3 13 4 4
1 27 8 52 15 51 15 63 18 70 19 3 0 17 5 33 11 15 6 38 13 50 15 12 3 33 8 47
11 14 4 41 9 60 12 19 3 37 7 38 8 12 11 138 -8 172 -25z m-44 -2215 c81 -23
140 -53 157 -79 17 -25 52 -124 61 -167 4 -24 9 -41 23 -76 17 -47 26 -94 25
-128 -1 -29 -63 -252 -163 -584 -27 -91 -51 -174 -54 -185 -2 -12 -39 -140
-81 -286 -41 -146 -77 -272 -79 -280 -3 -8 -24 -81 -48 -163 -41 -136 -47
-150 -85 -185 -22 -20 -50 -44 -62 -52 -13 -8 -28 -20 -34 -26 -7 -6 -22 -15
-34 -18 -12 -4 -22 -12 -22 -17 0 -6 -4 -7 -10 -4 -5 3 -10 1 -10 -5 0 -6 -4
-8 -10 -5 -5 3 -10 1 -10 -4 0 -6 -3 -10 -7 -9 -5 1 -26 -4 -48 -10 -22 -7
-54 -12 -71 -12 -49 0 -151 83 -215 175 -19 28 -36 52 -39 55 -9 9 -130 236
-129 243 1 4 -13 42 -31 88 -11 25 -21 56 -23 70 -3 13 -10 45 -17 69 -23 91
-26 107 -29 185 l-3 80 34 -36 c48 -52 91 -103 108 -129 8 -12 21 -28 28 -36
6 -7 12 -16 12 -21 0 -4 13 -22 28 -40 15 -18 41 -49 57 -70 37 -46 125 -129
168 -158 128 -87 251 -44 307 105 32 87 50 200 58 375 9 222 8 1014 -2 1165
-14 205 -17 184 29 191 60 8 164 1 221 -16z m-816 -226 c14 -17 30 -36 36 -43
6 -7 15 -22 18 -34 4 -12 12 -22 17 -22 6 0 8 -4 5 -9 -3 -5 1 -14 9 -21 8 -7
15 -20 15 -30 0 -9 3 -20 8 -24 4 -4 7 -11 7 -14 1 -4 8 -29 17 -57 9 -27 19
-63 22 -80 3 -16 7 -41 10 -54 23 -102 28 -369 9 -501 -8 -57 -17 -107 -19
-110 -10 -9 -284 287 -334 360 -8 12 -21 28 -27 36 -7 7 -13 17 -13 23 0 6 -4
11 -10 11 -5 0 -10 6 -10 14 0 8 -6 21 -12 28 -13 13 -52 85 -54 97 0 3 -6 26
-13 51 -32 110 31 225 189 347 30 24 60 47 65 52 18 18 40 11 65 -20z"/>
</g>
</svg>
